<mxfile host="app.diagrams.net" modified="2024-02-09T03:00:10.922Z" agent="Mozilla/5.0 (Windows NT 10.0; Win64; x64) AppleWebKit/537.36 (KHTML, like Gecko) Chrome/121.0.0.0 Safari/537.36" etag="yC-_nCGs9zopWR8liQp_" version="23.1.2" type="device">
  <diagram name="PÃ¡gina-1" id="vt7rZaL2pM_i3mBpdl6p">
    <mxGraphModel dx="1434" dy="738" grid="1" gridSize="10" guides="1" tooltips="1" connect="1" arrows="1" fold="1" page="1" pageScale="1" pageWidth="827" pageHeight="1169" math="0" shadow="0">
      <root>
        <mxCell id="0" />
        <mxCell id="1" parent="0" />
        <mxCell id="Vq-LmI5NbTqMui23IXcb-1" value="Profesor" style="shape=umlActor;verticalLabelPosition=bottom;verticalAlign=top;html=1;outlineConnect=0;" parent="1" vertex="1">
          <mxGeometry x="200" y="240" width="30" height="60" as="geometry" />
        </mxCell>
        <mxCell id="Vq-LmI5NbTqMui23IXcb-3" value="Ver notificaciones" style="ellipse;whiteSpace=wrap;html=1;" parent="1" vertex="1">
          <mxGeometry x="294" y="120" width="100" height="40" as="geometry" />
        </mxCell>
        <mxCell id="Vq-LmI5NbTqMui23IXcb-4" value="Enviar mensaje a tutor legal" style="ellipse;whiteSpace=wrap;html=1;" parent="1" vertex="1">
          <mxGeometry x="294" y="190" width="120" height="40" as="geometry" />
        </mxCell>
        <mxCell id="Vq-LmI5NbTqMui23IXcb-5" value="Poner falta de asistencia" style="ellipse;whiteSpace=wrap;html=1;" parent="1" vertex="1">
          <mxGeometry x="294" y="360" width="120" height="40" as="geometry" />
        </mxCell>
        <mxCell id="Vq-LmI5NbTqMui23IXcb-6" value="Comprobar horario" style="ellipse;whiteSpace=wrap;html=1;" parent="1" vertex="1">
          <mxGeometry x="280" y="490" width="120" height="40" as="geometry" />
        </mxCell>
        <mxCell id="Vq-LmI5NbTqMui23IXcb-7" value="Modificar falta de asistencia" style="ellipse;whiteSpace=wrap;html=1;" parent="1" vertex="1">
          <mxGeometry x="290" y="260" width="100" height="40" as="geometry" />
        </mxCell>
        <mxCell id="n8uNfB3VOEBbQXsmQLZW-1" value="iniciar sesion" style="ellipse;whiteSpace=wrap;html=1;" parent="1" vertex="1">
          <mxGeometry x="610" y="250" width="100" height="40" as="geometry" />
        </mxCell>
        <mxCell id="BWUvfmqo1awKAAEpEJiO-4" value="" style="endArrow=none;dashed=1;html=1;dashPattern=1 3;strokeWidth=2;rounded=0;entryX=0;entryY=0.5;entryDx=0;entryDy=0;exitX=1;exitY=0.5;exitDx=0;exitDy=0;" edge="1" parent="1" source="Vq-LmI5NbTqMui23IXcb-5" target="n8uNfB3VOEBbQXsmQLZW-1">
          <mxGeometry width="50" height="50" relative="1" as="geometry">
            <mxPoint x="480" y="360" as="sourcePoint" />
            <mxPoint x="530" y="310" as="targetPoint" />
          </mxGeometry>
        </mxCell>
        <mxCell id="BWUvfmqo1awKAAEpEJiO-5" value="" style="endArrow=none;dashed=1;html=1;dashPattern=1 3;strokeWidth=2;rounded=0;entryX=0;entryY=0.5;entryDx=0;entryDy=0;exitX=1;exitY=0.5;exitDx=0;exitDy=0;" edge="1" parent="1" source="Vq-LmI5NbTqMui23IXcb-6" target="n8uNfB3VOEBbQXsmQLZW-1">
          <mxGeometry width="50" height="50" relative="1" as="geometry">
            <mxPoint x="440" y="360" as="sourcePoint" />
            <mxPoint x="620" y="280" as="targetPoint" />
          </mxGeometry>
        </mxCell>
        <mxCell id="BWUvfmqo1awKAAEpEJiO-6" value="" style="endArrow=none;dashed=1;html=1;dashPattern=1 3;strokeWidth=2;rounded=0;entryX=0;entryY=0.5;entryDx=0;entryDy=0;exitX=1;exitY=0.5;exitDx=0;exitDy=0;" edge="1" parent="1" source="Vq-LmI5NbTqMui23IXcb-7" target="n8uNfB3VOEBbQXsmQLZW-1">
          <mxGeometry width="50" height="50" relative="1" as="geometry">
            <mxPoint x="370" y="430" as="sourcePoint" />
            <mxPoint x="620" y="280" as="targetPoint" />
          </mxGeometry>
        </mxCell>
        <mxCell id="BWUvfmqo1awKAAEpEJiO-7" value="" style="endArrow=none;dashed=1;html=1;dashPattern=1 3;strokeWidth=2;rounded=0;entryX=0;entryY=0.5;entryDx=0;entryDy=0;exitX=1;exitY=0.5;exitDx=0;exitDy=0;" edge="1" parent="1" source="Vq-LmI5NbTqMui23IXcb-4" target="n8uNfB3VOEBbQXsmQLZW-1">
          <mxGeometry width="50" height="50" relative="1" as="geometry">
            <mxPoint x="490" y="280" as="sourcePoint" />
            <mxPoint x="620" y="280" as="targetPoint" />
          </mxGeometry>
        </mxCell>
        <mxCell id="BWUvfmqo1awKAAEpEJiO-8" value="" style="endArrow=none;dashed=1;html=1;dashPattern=1 3;strokeWidth=2;rounded=0;entryX=0;entryY=0.5;entryDx=0;entryDy=0;exitX=1;exitY=0.5;exitDx=0;exitDy=0;" edge="1" parent="1" source="Vq-LmI5NbTqMui23IXcb-3" target="n8uNfB3VOEBbQXsmQLZW-1">
          <mxGeometry width="50" height="50" relative="1" as="geometry">
            <mxPoint x="440" y="210" as="sourcePoint" />
            <mxPoint x="620" y="280" as="targetPoint" />
          </mxGeometry>
        </mxCell>
        <mxCell id="BWUvfmqo1awKAAEpEJiO-9" value="" style="endArrow=none;html=1;rounded=0;entryX=0;entryY=1;entryDx=0;entryDy=0;exitX=0.5;exitY=0;exitDx=0;exitDy=0;exitPerimeter=0;" edge="1" parent="1" source="Vq-LmI5NbTqMui23IXcb-1" target="Vq-LmI5NbTqMui23IXcb-3">
          <mxGeometry width="50" height="50" relative="1" as="geometry">
            <mxPoint x="50" y="310" as="sourcePoint" />
            <mxPoint x="100" y="260" as="targetPoint" />
          </mxGeometry>
        </mxCell>
        <mxCell id="BWUvfmqo1awKAAEpEJiO-10" value="" style="endArrow=none;html=1;rounded=0;entryX=0;entryY=0.5;entryDx=0;entryDy=0;exitX=0.5;exitY=0.5;exitDx=0;exitDy=0;exitPerimeter=0;" edge="1" parent="1" source="Vq-LmI5NbTqMui23IXcb-1" target="Vq-LmI5NbTqMui23IXcb-4">
          <mxGeometry width="50" height="50" relative="1" as="geometry">
            <mxPoint x="225" y="250" as="sourcePoint" />
            <mxPoint x="265" y="164" as="targetPoint" />
          </mxGeometry>
        </mxCell>
        <mxCell id="BWUvfmqo1awKAAEpEJiO-11" value="" style="endArrow=none;html=1;rounded=0;entryX=0;entryY=0.5;entryDx=0;entryDy=0;exitX=0.5;exitY=0.5;exitDx=0;exitDy=0;exitPerimeter=0;" edge="1" parent="1" source="Vq-LmI5NbTqMui23IXcb-1" target="Vq-LmI5NbTqMui23IXcb-7">
          <mxGeometry width="50" height="50" relative="1" as="geometry">
            <mxPoint x="225" y="280" as="sourcePoint" />
            <mxPoint x="304" y="220" as="targetPoint" />
          </mxGeometry>
        </mxCell>
        <mxCell id="BWUvfmqo1awKAAEpEJiO-12" value="" style="endArrow=none;html=1;rounded=0;entryX=0;entryY=0.5;entryDx=0;entryDy=0;exitX=0.5;exitY=0.5;exitDx=0;exitDy=0;exitPerimeter=0;" edge="1" parent="1" source="Vq-LmI5NbTqMui23IXcb-1" target="Vq-LmI5NbTqMui23IXcb-5">
          <mxGeometry width="50" height="50" relative="1" as="geometry">
            <mxPoint x="225" y="280" as="sourcePoint" />
            <mxPoint x="330" y="290" as="targetPoint" />
          </mxGeometry>
        </mxCell>
        <mxCell id="BWUvfmqo1awKAAEpEJiO-13" value="" style="endArrow=none;html=1;rounded=0;entryX=0.5;entryY=0;entryDx=0;entryDy=0;exitX=0.5;exitY=0.5;exitDx=0;exitDy=0;exitPerimeter=0;" edge="1" parent="1" source="Vq-LmI5NbTqMui23IXcb-1" target="Vq-LmI5NbTqMui23IXcb-6">
          <mxGeometry width="50" height="50" relative="1" as="geometry">
            <mxPoint x="225" y="280" as="sourcePoint" />
            <mxPoint x="320" y="360" as="targetPoint" />
          </mxGeometry>
        </mxCell>
        <mxCell id="BWUvfmqo1awKAAEpEJiO-14" value="include" style="text;html=1;strokeColor=none;fillColor=none;align=center;verticalAlign=middle;whiteSpace=wrap;rounded=0;" vertex="1" parent="1">
          <mxGeometry x="470" y="170" width="60" height="30" as="geometry" />
        </mxCell>
        <mxCell id="BWUvfmqo1awKAAEpEJiO-15" value="include" style="text;html=1;strokeColor=none;fillColor=none;align=center;verticalAlign=middle;whiteSpace=wrap;rounded=0;" vertex="1" parent="1">
          <mxGeometry x="410" y="220" width="60" height="30" as="geometry" />
        </mxCell>
        <mxCell id="BWUvfmqo1awKAAEpEJiO-17" value="include" style="text;html=1;strokeColor=none;fillColor=none;align=center;verticalAlign=middle;whiteSpace=wrap;rounded=0;" vertex="1" parent="1">
          <mxGeometry x="410" y="280" width="60" height="30" as="geometry" />
        </mxCell>
        <mxCell id="BWUvfmqo1awKAAEpEJiO-18" value="include" style="text;html=1;strokeColor=none;fillColor=none;align=center;verticalAlign=middle;whiteSpace=wrap;rounded=0;" vertex="1" parent="1">
          <mxGeometry x="384" y="330" width="60" height="30" as="geometry" />
        </mxCell>
        <mxCell id="BWUvfmqo1awKAAEpEJiO-19" value="include" style="text;html=1;strokeColor=none;fillColor=none;align=center;verticalAlign=middle;whiteSpace=wrap;rounded=0;" vertex="1" parent="1">
          <mxGeometry x="440" y="480" width="60" height="30" as="geometry" />
        </mxCell>
      </root>
    </mxGraphModel>
  </diagram>
</mxfile>
